<svg version="1.1" id="OAC" class="funder-badge oac" xmlns="http://www.w3.org/2000/svg" x="0" y="0" width="160" height="40" viewBox="0 0 160 40" xml:space="preserve" enable-background="new 0 0 160 40" aria-labelledby="title desc" role="img"><title id="title">Ontario Arts Council</title><desc id="desc">An Ontario Government Agency</desc><path d="M37.8 27l5.9 10.3L39.1 40 33 29.5C34.7 28.8 36.3 28 37.8 27L37.8 27z"/><path d="M12.9 22.4L24 3.1l11 19.1c-1.5 1-3.1 1.9-4.9 2.4L24 14l-6.2 10.8L15 29.6 9 40l-4.7-2.7 5.8-10.1L12.9 22.4 12.9 22.4z"/><path d="M11.9 15.6c-4.3 0-7.8-3.5-7.8-7.8S7.6 0 11.9 0c4.3 0 7.8 3.5 7.8 7.8S16.2 15.6 11.9 15.6zM11.9 4.1c-2 0-3.7 1.7-3.7 3.7 0 2 1.7 3.7 3.7 3.7 2 0 3.7-1.7 3.7-3.7C15.6 5.7 13.9 4.1 11.9 4.1z"/><path d="M39.7 25.6c-0.6 0.5-1.2 0.9-1.8 1.4 -1.5 1-3.1 1.8-4.8 2.5 -5 1.9-10.6 2.3-16.1 0.7 -0.6-0.2-1.2-0.4-1.8-0.6l2.8-4.8c0.2 0.1 0.4 0.1 0.6 0.2 4 1.2 8.1 1 11.8-0.3 1.7-0.6 3.4-1.4 4.9-2.4 0.4-0.3 0.8-0.6 1.2-0.9L39.7 25.6 39.7 25.6zM10.1 27.2c-4.7-3-8.2-7.5-10.1-12.7l5.2-1.9c1.4 4 4.1 7.4 7.7 9.8L10.1 27.2 10.1 27.2z"/><path d="M52.6 19.4c-0.2 0.1-0.7 0.2-1.2 0.2 -1.7 0-2.5-1.2-2.5-2.8 0-1.6 0.9-2.8 2.5-2.8 0.6 0 1 0.1 1.2 0.2l-0.1 0.9c-0.2-0.1-0.5-0.3-1-0.3 -0.8 0-1.5 0.6-1.5 2 0 1.4 0.7 2 1.5 2 0.5 0 0.8-0.1 1-0.3L52.6 19.4z"/><path d="M55.3 14c1.1 0 2.2 0.8 2.2 2.8 0 2-1 2.8-2.2 2.8 -1.1 0-2.2-0.8-2.2-2.8C53.1 14.8 54.2 14 55.3 14zM55.3 18.8c0.6 0 1.1-0.5 1.1-2 0-1.5-0.5-2-1.1-2 -0.6 0-1.1 0.5-1.1 2C54.2 18.3 54.7 18.8 55.3 18.8z"/><path d="M58.5 14h1.2l1.8 4.3h0V14h0.9v5.5h-1.2l-1.8-4.3h0v4.3h-0.9V14z"/><path d="M63.5 18.4c0.2 0.1 0.6 0.3 1.2 0.3 0.4 0 0.8-0.2 0.8-0.8 0-0.4-0.2-0.6-0.7-0.8l-0.5-0.3c-0.5-0.3-0.9-0.7-0.9-1.4 0-1 0.8-1.5 1.7-1.5 0.6 0 1 0.1 1.1 0.2l0 0.8c-0.2-0.1-0.6-0.2-1-0.2 -0.5 0-0.8 0.3-0.8 0.6 0 0.4 0.3 0.6 0.6 0.7l0.6 0.3c0.6 0.4 0.9 0.7 0.9 1.5 0 1.1-0.8 1.6-1.8 1.6 -0.5 0-1-0.1-1.2-0.2L63.5 18.4z"/><path d="M67.5 14h2.9v0.8h-1.9v1.5h1.8v0.8h-1.8v1.6h1.9v0.8h-3L67.5 14 67.5 14z"/><path d="M71.4 14h1v5.5h-1V14z"/><path d="M73.6 14h1v4.7h1.8v0.8h-2.8V14z"/><path d="M79.2 14h1.4c1.7 0 2.6 0.9 2.6 2.7 0 1.8-1.1 2.7-2.6 2.7h-1.4V14zM80.2 18.7h0.3c1.1 0 1.6-0.8 1.6-2 0-1.2-0.5-2-1.6-2h-0.3V18.7z"/><path d="M84.2 14h2.9v0.8h-1.9v1.5H87v0.8h-1.8v1.6h1.9v0.8h-2.9V14z"/><path d="M88 18.4c0.2 0.1 0.6 0.3 1.2 0.3 0.4 0 0.8-0.2 0.8-0.8 0-0.4-0.2-0.6-0.7-0.8l-0.5-0.3c-0.5-0.3-0.9-0.7-0.9-1.4 0-1 0.8-1.5 1.7-1.5 0.6 0 1 0.1 1.1 0.2L90.7 15c-0.2-0.1-0.6-0.2-1-0.2 -0.5 0-0.8 0.3-0.8 0.6 0 0.4 0.3 0.6 0.6 0.7l0.6 0.3c0.6 0.4 0.9 0.7 0.9 1.5 0 1.1-0.8 1.6-1.8 1.6 -0.5 0-1-0.1-1.2-0.2L88 18.4z"/><path d="M96.9 18.2H95l-0.4 1.3h-1l1.8-5.5h1.1l1.8 5.5h-1L96.9 18.2zM96.7 17.4L96 14.9h0l-0.8 2.6H96.7z"/><path d="M99 14h1.7c1 0 1.6 0.4 1.6 1.4 0 0.7-0.4 1.2-1.1 1.3v0c0.2 0 0.4 0.1 0.6 0.6l0.7 2.1h-1.1l-0.5-1.8c-0.1-0.4-0.4-0.6-0.8-0.6H100v2.3h-1L99 14 99 14zM100.4 16.4c0.5 0 0.9-0.3 0.9-0.8 0-0.6-0.3-0.8-0.9-0.8H100v1.6C100 16.4 100.4 16.4 100.4 16.4z"/><path d="M104.2 14.8H103V14h3.4v0.8h-1.2v4.7h-1L104.2 14.8 104.2 14.8z"/><path d="M107.2 18.4c0.2 0.1 0.6 0.3 1.2 0.3 0.4 0 0.8-0.2 0.8-0.8 0-0.4-0.2-0.6-0.7-0.8l-0.5-0.3c-0.5-0.3-0.9-0.7-0.9-1.4 0-1 0.8-1.5 1.7-1.5 0.6 0 1 0.1 1.1 0.2l0 0.8c-0.2-0.1-0.6-0.2-1-0.2 -0.5 0-0.8 0.3-0.8 0.6 0 0.4 0.3 0.6 0.6 0.7l0.6 0.3c0.6 0.4 0.9 0.7 0.9 1.5 0 1.1-0.8 1.6-1.8 1.6 -0.5 0-1-0.1-1.2-0.2L107.2 18.4z"/><path d="M113.3 14h1.4c1.7 0 2.6 0.9 2.6 2.7 0 1.8-1.1 2.7-2.6 2.7h-1.4L113.3 14 113.3 14zM114.3 18.7h0.3c1.1 0 1.6-0.8 1.6-2 0-1.2-0.5-2-1.6-2h-0.3V18.7z"/><path d="M118.3 14h2.9v0.8h-1.9v1.5h1.8v0.8h-1.8v1.6h2v0.8h-3V14z"/><path d="M124.3 14h1v4.7h1.8v0.8h-2.8V14z"/><path d="M128.3 13.6l-0.6 1.9H127l0.4-1.9H128.3z"/><path d="M131 14c1.1 0 2.2 0.8 2.2 2.8 0 2-1 2.8-2.2 2.8 -1.1 0-2.2-0.8-2.2-2.8C128.9 14.8 129.9 14 131 14zM131 18.8c0.6 0 1.1-0.5 1.1-2 0-1.5-0.5-2-1.1-2 -0.6 0-1.1 0.5-1.1 2C129.9 18.3 130.4 18.8 131 18.8z"/><path d="M134.2 14h1.2l1.8 4.3h0V14h0.9v5.5h-1.2l-1.8-4.3h0v4.3h-0.9V14z"/><path d="M140.1 14.8h-1.2V14h3.4v0.8h-1.2v4.7h-1V14.8L140.1 14.8z"/><path d="M145.5 18.2h-1.9l-0.4 1.3h-1l1.8-5.5h1.1l1.8 5.5h-1L145.5 18.2zM145.3 17.4l-0.7-2.6h0l-0.8 2.6H145.3z"/><path d="M147.6 14h1.7c1 0 1.6 0.4 1.6 1.4 0 0.7-0.4 1.2-1.1 1.3v0c0.2 0 0.4 0.1 0.6 0.6l0.7 2.1h-1.1l-0.5-1.8c-0.1-0.4-0.4-0.6-0.8-0.6h-0.2v2.3h-1L147.6 14 147.6 14zM149 16.4c0.5 0 0.9-0.3 0.9-0.8 0-0.6-0.3-0.8-0.9-0.8h-0.4v1.6C148.6 16.4 149 16.4 149 16.4z"/><path d="M152 14h1v5.5h-1V14z"/><path d="M156.2 14c1.1 0 2.2 0.8 2.2 2.8 0 2-1 2.8-2.2 2.8 -1.1 0-2.2-0.8-2.2-2.8C154 14.8 155.1 14 156.2 14zM156.2 18.8c0.6 0 1.1-0.5 1.1-2 0-1.5-0.5-2-1.1-2 -0.6 0-1.1 0.5-1.1 2C155.1 18.3 155.6 18.8 156.2 18.8z"/><path d="M51.1 3.6c1.1 0 2.2 0.8 2.2 2.8 0 2-1 2.8-2.2 2.8 -1.1 0-2.2-0.8-2.2-2.8C48.9 4.4 49.9 3.6 51.1 3.6zM51.1 8.4c0.6 0 1.1-0.5 1.1-2s-0.5-2-1.1-2c-0.6 0-1.1 0.5-1.1 2S50.4 8.4 51.1 8.4z"/><path d="M54.2 3.7h1.2l1.8 4.3h0V3.7h0.9v5.5h-1.2l-1.8-4.3h0v4.3h-0.9V3.7z"/><path d="M60.1 4.5h-1.2V3.7h3.4v0.8h-1.2v4.7h-1C60.1 9.1 60.1 4.5 60.1 4.5z"/><path d="M65.5 7.8h-1.9l-0.4 1.3h-1l1.8-5.5h1.1l1.8 5.5h-1L65.5 7.8zM65.3 7l-0.7-2.6h0L63.8 7H65.3z"/><path d="M67.6 3.7h1.7c1 0 1.6 0.4 1.6 1.4 0 0.7-0.4 1.2-1.1 1.3v0c0.2 0 0.4 0.1 0.6 0.6l0.7 2.1h-1.1l-0.5-1.8c-0.1-0.4-0.4-0.6-0.8-0.6h-0.2v2.3h-1V3.7zM69 6c0.5 0 0.9-0.3 0.9-0.8 0-0.6-0.3-0.8-0.9-0.8h-0.4V6L69 6 69 6z"/><path d="M72.1 3.7h1v5.5h-1V3.7z"/><path d="M76.2 3.6c1.1 0 2.2 0.8 2.2 2.8 0 2-1 2.8-2.2 2.8 -1.1 0-2.2-0.8-2.2-2.8C74 4.4 75.1 3.6 76.2 3.6zM76.2 8.4c0.6 0 1.1-0.5 1.1-2s-0.5-2-1.1-2 -1.1 0.5-1.1 2S75.6 8.4 76.2 8.4z"/><path d="M84.2 7.8h-1.9l-0.4 1.3h-1l1.8-5.5h1.1l1.8 5.5h-1L84.2 7.8zM84 7l-0.7-2.6h0L82.5 7H84z"/><path d="M86.3 3.7H88c1 0 1.6 0.4 1.6 1.4 0 0.7-0.4 1.2-1.1 1.3v0c0.2 0 0.4 0.1 0.6 0.6l0.7 2.1h-1.1l-0.5-1.8c-0.1-0.4-0.4-0.6-0.8-0.6h-0.2v2.3h-1V3.7zM87.7 6c0.5 0 0.9-0.3 0.9-0.8 0-0.6-0.3-0.8-0.9-0.8h-0.4V6L87.7 6 87.7 6z"/><path d="M91.5 4.5h-1.2V3.7h3.4v0.8h-1.2v4.7h-1L91.5 4.5 91.5 4.5z"/><path d="M94.5 8.1c0.2 0.1 0.6 0.3 1.2 0.3 0.4 0 0.8-0.2 0.8-0.8 0-0.4-0.2-0.6-0.7-0.8l-0.5-0.3c-0.5-0.3-0.9-0.7-0.9-1.4 0-1 0.8-1.5 1.7-1.5 0.6 0 1 0.1 1.1 0.2l0 0.8c-0.2-0.1-0.6-0.2-1-0.2 -0.5 0-0.8 0.3-0.8 0.6 0 0.4 0.3 0.6 0.6 0.7l0.6 0.3c0.6 0.4 0.9 0.7 0.9 1.5 0 1.1-0.8 1.6-1.8 1.6 -0.5 0-1-0.1-1.2-0.2L94.5 8.1z"/><path d="M104.1 9c-0.2 0.1-0.7 0.2-1.2 0.2 -1.7 0-2.5-1.2-2.5-2.8 0-1.6 0.9-2.8 2.5-2.8 0.6 0 1 0.1 1.2 0.2l-0.1 0.9c-0.2-0.1-0.5-0.3-1-0.3 -0.8 0-1.5 0.6-1.5 2 0 1.4 0.7 2 1.5 2 0.5 0 0.8-0.1 1-0.3L104.1 9z"/><path d="M106.8 3.6c1.1 0 2.2 0.8 2.2 2.8 0 2-1 2.8-2.2 2.8 -1.1 0-2.2-0.8-2.2-2.8C104.7 4.4 105.7 3.6 106.8 3.6zM106.8 8.4c0.6 0 1.1-0.5 1.1-2s-0.5-2-1.1-2 -1.1 0.5-1.1 2S106.2 8.4 106.8 8.4z"/><path d="M110.9 3.7v3.5c0 0.9 0.3 1.2 0.9 1.2 0.6 0 0.9-0.3 0.9-1.2V3.7h1v3.5c0 1.4-0.8 2-1.9 2 -1 0-1.9-0.6-1.9-2V3.7C109.9 3.7 110.9 3.7 110.9 3.7z"/><path d="M114.8 3.7h1.2l1.8 4.3h0V3.7h0.9v5.5h-1.2l-1.8-4.3h0v4.3h-0.9L114.8 3.7 114.8 3.7z"/><path d="M123.4 9c-0.2 0.1-0.7 0.2-1.2 0.2 -1.7 0-2.5-1.2-2.5-2.8 0-1.6 0.9-2.8 2.5-2.8 0.6 0 1 0.1 1.2 0.2l-0.1 0.9c-0.2-0.1-0.5-0.3-1-0.3 -0.8 0-1.5 0.6-1.5 2 0 1.4 0.7 2 1.5 2 0.5 0 0.8-0.1 1-0.3L123.4 9z"/><path d="M124.3 3.7h1v5.5h-1V3.7z"/><path d="M126.5 3.7h1v4.7h1.8v0.8h-2.8L126.5 3.7 126.5 3.7z"/><path d="M158.4 24.2H49.1v-0.8h109.3V24.2zM49.5 23.8H158 49.5z"/><path d="M49.3 28.6c0.2-0.2 0.5-0.2 0.8-0.2 0.4 0 0.7 0.2 0.8 0.3 0.1 0.1 0.3 0.3 0.3 0.7v1.5c0 0.2 0 0.3 0 0.4h-0.4l0-0.4h0c-0.1 0.2-0.4 0.4-0.8 0.4 -0.5 0-0.8-0.3-0.8-0.8 0-0.6 0.4-1 1.4-1h0.3v-0.1c0-0.2 0-0.3-0.1-0.5 -0.1-0.1-0.3-0.2-0.5-0.2 -0.3 0-0.6 0.1-0.8 0.3L49.3 28.6zM50.7 29.8c-0.1 0-0.2 0-0.3 0 -0.6 0-0.8 0.3-0.8 0.6 0 0.3 0.2 0.5 0.5 0.5 0.4 0 0.7-0.3 0.7-0.7V29.8z"/><path d="M52.2 29c0-0.2 0-0.4 0-0.6h0.5l0 0.4h0c0.2-0.3 0.4-0.5 0.7-0.5 0.5 0 0.9 0.3 0.9 0.9v2h-0.5v-1.9c0-0.5-0.2-0.7-0.5-0.7 -0.4 0-0.6 0.3-0.6 0.8v1.8h-0.5L52.2 29 52.2 29z"/><path d="M58.4 27.2c0.9 0 1.5 0.8 1.5 2 0 1.4-0.6 2.1-1.5 2.1 -0.9 0-1.5-0.8-1.5-2C56.9 27.9 57.5 27.2 58.4 27.2zM58.4 30.9c0.5 0 1-0.4 1-1.7 0-0.8-0.3-1.6-0.9-1.6 -0.5 0-1 0.4-1 1.7C57.4 30.1 57.7 30.9 58.4 30.9z"/><path d="M60.8 29c0-0.2 0-0.4 0-0.6h0.5l0 0.4h0c0.2-0.3 0.4-0.5 0.7-0.5 0.5 0 0.9 0.3 0.9 0.9v2h-0.5v-1.9c0-0.5-0.2-0.7-0.5-0.7 -0.4 0-0.6 0.3-0.6 0.8v1.8h-0.5V29z"/><path d="M65.2 31.2c-0.1 0-0.3 0.1-0.4 0.1 -0.4 0-0.7-0.2-0.7-0.7v-1.9h-0.5v-0.4h0.5v-0.6l0.5-0.1v0.7h0.6v0.4h-0.6v1.7c0 0.3 0.1 0.5 0.3 0.5 0.1 0 0.2 0 0.3-0.1L65.2 31.2 65.2 31.2z"/><path d="M66.1 28.6c0.2-0.2 0.5-0.2 0.8-0.2 0.4 0 0.7 0.2 0.8 0.3 0.1 0.1 0.3 0.3 0.3 0.7v1.5c0 0.2 0 0.3 0 0.4h-0.4l0-0.4h0c-0.1 0.2-0.4 0.4-0.8 0.4 -0.5 0-0.8-0.3-0.8-0.8 0-0.6 0.4-1 1.4-1h0.3v-0.1c0-0.2 0-0.3-0.1-0.5 -0.1-0.1-0.3-0.2-0.5-0.2 -0.3 0-0.6 0.1-0.8 0.3L66.1 28.6zM67.5 29.8c-0.1 0-0.2 0-0.3 0 -0.6 0-0.8 0.3-0.8 0.6 0 0.3 0.2 0.5 0.5 0.5 0.4 0 0.7-0.3 0.7-0.7V29.8z"/><path d="M68.9 29c0-0.2 0-0.4 0-0.6h0.5l0 0.5h0c0.2-0.4 0.4-0.5 0.8-0.5v0.5c-0.1 0-0.1 0-0.2 0 -0.4 0-0.6 0.3-0.6 1v1.5h-0.5L68.9 29 68.9 29z"/><path d="M71.5 27.1v0.6H71v-0.6H71.5zM71 28.4h0.5v2.9H71V28.4z"/><path d="M73.6 28.3c0.8 0 1.2 0.6 1.2 1.5s-0.4 1.5-1.2 1.5c-0.8 0-1.2-0.6-1.2-1.5S72.8 28.3 73.6 28.3zM73.6 30.9c0.5 0 0.7-0.4 0.7-1.1 0-0.7-0.2-1.1-0.7-1.1 -0.5 0-0.7 0.4-0.7 1.1C72.9 30.5 73.1 30.9 73.6 30.9z"/><path d="M79.4 31.4c0 0.8-0.6 1.1-1.2 1.1 -0.2 0-0.6-0.1-0.9-0.2l0-0.5c0.2 0.1 0.5 0.3 0.8 0.3 0.6 0 0.8-0.4 0.8-0.9v-0.5h0c-0.2 0.3-0.4 0.5-0.8 0.5 -0.6 0-1-0.5-1-1.5 0-1 0.4-1.5 1.1-1.5 0.3 0 0.6 0.2 0.7 0.5h0l0-0.4h0.5c0 0.2 0 0.4 0 0.5V31.4zM78.3 30.9c0.4 0 0.6-0.4 0.6-1.1 0-0.7-0.2-1.1-0.6-1.1 -0.4 0-0.6 0.4-0.6 1.1C77.7 30.5 77.9 30.9 78.3 30.9z"/><path d="M81.4 28.3c0.8 0 1.2 0.6 1.2 1.5s-0.4 1.5-1.2 1.5c-0.8 0-1.2-0.6-1.2-1.5S80.7 28.3 81.4 28.3zM81.4 30.9c0.5 0 0.7-0.4 0.7-1.1 0-0.7-0.2-1.1-0.7-1.1 -0.5 0-0.7 0.4-0.7 1.1C80.8 30.5 81 30.9 81.4 30.9z"/><path d="M83.2 28.4h0.5l0.6 2.4h0l0.7-2.4h0.5l-0.9 2.9h-0.6L83.2 28.4z"/><path d="M86.6 30c0 0.7 0.3 1 0.8 1 0.2 0 0.5-0.1 0.7-0.2l0 0.4c-0.2 0.1-0.5 0.2-0.8 0.2 -0.8 0-1.2-0.6-1.2-1.5 0-0.9 0.4-1.5 1.1-1.5 0.7 0 1 0.5 1 1.4V30L86.6 30 86.6 30zM87.8 29.6c0-0.6-0.2-0.9-0.6-0.9 -0.3 0-0.6 0.2-0.6 0.9H87.8z"/><path d="M89.1 29c0-0.2 0-0.4 0-0.6h0.5l0 0.5h0c0.2-0.4 0.4-0.5 0.8-0.5v0.5c-0.1 0-0.1 0-0.2 0 -0.4 0-0.6 0.3-0.6 1v1.5h-0.5L89.1 29 89.1 29z"/><path d="M91.2 29c0-0.2 0-0.4 0-0.6h0.5l0 0.4h0c0.2-0.3 0.4-0.5 0.7-0.5 0.5 0 0.9 0.3 0.9 0.9v2h-0.5v-1.9c0-0.5-0.2-0.7-0.5-0.7 -0.4 0-0.6 0.3-0.6 0.8v1.8h-0.5L91.2 29 91.2 29z"/><path d="M94.2 29c0-0.2 0-0.4 0-0.6h0.5l0 0.4h0c0.2-0.3 0.4-0.5 0.7-0.5 0.3 0 0.5 0.2 0.7 0.5 0.2-0.3 0.4-0.5 0.7-0.5 0.5 0 0.8 0.3 0.8 0.9v2h-0.5v-2c0-0.4-0.2-0.5-0.4-0.5 -0.4 0-0.6 0.2-0.6 0.7v1.8h-0.5v-2c0-0.4-0.2-0.5-0.4-0.5 -0.4 0-0.6 0.2-0.6 0.7v1.8h-0.5V29z"/><path d="M99.1 30c0 0.7 0.3 1 0.8 1 0.2 0 0.5-0.1 0.7-0.2l0 0.4c-0.2 0.1-0.5 0.2-0.8 0.2 -0.8 0-1.2-0.6-1.2-1.5 0-0.9 0.4-1.5 1.1-1.5 0.7 0 1 0.5 1 1.4V30L99.1 30 99.1 30zM100.2 29.6c0-0.6-0.2-0.9-0.6-0.9 -0.3 0-0.6 0.2-0.6 0.9H100.2z"/><path d="M101.6 29c0-0.2 0-0.4 0-0.6h0.5l0 0.4h0c0.2-0.3 0.4-0.5 0.7-0.5 0.5 0 0.9 0.3 0.9 0.9v2h-0.5v-1.9c0-0.5-0.2-0.7-0.5-0.7 -0.4 0-0.6 0.3-0.6 0.8v1.8h-0.5L101.6 29 101.6 29z"/><path d="M106 31.2c-0.1 0-0.3 0.1-0.4 0.1 -0.4 0-0.7-0.2-0.7-0.7v-1.9h-0.5v-0.4h0.5v-0.6l0.5-0.1v0.7h0.6v0.4h-0.6v1.7c0 0.3 0.1 0.5 0.3 0.5 0.1 0 0.2 0 0.3-0.1L106 31.2 106 31.2z"/><path d="M108.5 28.6c0.2-0.2 0.5-0.2 0.8-0.2 0.4 0 0.7 0.2 0.8 0.3 0.1 0.1 0.3 0.3 0.3 0.7v1.5c0 0.2 0 0.3 0 0.4H110l0-0.4h0c-0.1 0.2-0.4 0.4-0.8 0.4 -0.5 0-0.8-0.3-0.8-0.8 0-0.6 0.4-1 1.4-1h0.3v-0.1c0-0.2 0-0.3-0.1-0.5 -0.1-0.1-0.3-0.2-0.5-0.2 -0.3 0-0.6 0.1-0.8 0.3L108.5 28.6zM109.9 29.8c-0.1 0-0.2 0-0.3 0 -0.6 0-0.8 0.3-0.8 0.6 0 0.3 0.2 0.5 0.5 0.5 0.4 0 0.7-0.3 0.7-0.7V29.8z"/><path d="M113.5 31.4c0 0.8-0.6 1.1-1.2 1.1 -0.2 0-0.6-0.1-0.9-0.2l0-0.5c0.2 0.1 0.5 0.3 0.8 0.3 0.6 0 0.8-0.4 0.8-0.9v-0.5h0c-0.2 0.3-0.4 0.5-0.8 0.5 -0.6 0-1-0.5-1-1.5 0-1 0.4-1.5 1.1-1.5 0.3 0 0.6 0.2 0.7 0.5h0l0-0.4h0.5c0 0.2 0 0.4 0 0.5V31.4zM112.4 30.9c0.4 0 0.6-0.4 0.6-1.1 0-0.7-0.2-1.1-0.6-1.1 -0.4 0-0.6 0.4-0.6 1.1C111.7 30.5 111.9 30.9 112.4 30.9z"/><path d="M114.8 30c0 0.7 0.3 1 0.8 1 0.2 0 0.5-0.1 0.7-0.2l0 0.4c-0.2 0.1-0.5 0.2-0.8 0.2 -0.8 0-1.2-0.6-1.2-1.5 0-0.9 0.4-1.5 1.1-1.5 0.7 0 1 0.5 1 1.4V30L114.8 30 114.8 30zM116 29.6c0-0.6-0.2-0.9-0.6-0.9 -0.3 0-0.6 0.2-0.6 0.9H116z"/><path d="M117.3 29c0-0.2 0-0.4 0-0.6h0.5l0 0.4h0c0.2-0.3 0.4-0.5 0.7-0.5 0.5 0 0.9 0.3 0.9 0.9v2h-0.5v-1.9c0-0.5-0.2-0.7-0.5-0.7 -0.4 0-0.6 0.3-0.6 0.8v1.8h-0.5L117.3 29 117.3 29z"/><path d="M122.1 28.9c-0.2-0.1-0.3-0.1-0.6-0.1 -0.5 0-0.8 0.3-0.8 1.1 0 0.7 0.3 1.1 0.8 1.1 0.2 0 0.4-0.1 0.6-0.2l0 0.4c-0.1 0.1-0.4 0.1-0.6 0.1 -0.9 0-1.3-0.6-1.3-1.5 0-0.9 0.5-1.5 1.3-1.5 0.2 0 0.4 0 0.6 0.1L122.1 28.9z"/><path d="M123.9 31.9c-0.1 0.5-0.3 0.7-0.7 0.7 -0.1 0-0.2 0-0.3 0l0-0.4c0.1 0 0.2 0.1 0.3 0.1 0.1 0 0.2-0.1 0.3-0.4l0.1-0.4 -0.9-3h0.5l0.7 2.4h0l0.6-2.4h0.5L123.9 31.9z"/><path d="M51.3 37.3c0 0.2 0 0.4 0 0.6h-0.5l0-0.4h0c-0.2 0.3-0.4 0.5-0.7 0.5 -0.5 0-0.9-0.3-0.9-0.9v-2h0.5v1.9c0 0.5 0.2 0.7 0.5 0.7 0.4 0 0.6-0.3 0.6-0.8V35h0.5L51.3 37.3 51.3 37.3z"/><path d="M52.3 35.6c0-0.2 0-0.4 0-0.6h0.5l0 0.4h0c0.2-0.3 0.4-0.5 0.7-0.5 0.5 0 0.9 0.3 0.9 0.9v2h-0.5V36c0-0.5-0.2-0.7-0.5-0.7 -0.4 0-0.6 0.3-0.6 0.8v1.8h-0.5L52.3 35.6 52.3 35.6z"/><path d="M58.1 35c0.8 0 1.2 0.6 1.2 1.5 0 0.9-0.4 1.5-1.2 1.5 -0.8 0-1.2-0.6-1.2-1.5S57.4 35 58.1 35zM58.1 37.6c0.5 0 0.7-0.4 0.7-1.1 0-0.7-0.2-1.1-0.7-1.1 -0.5 0-0.7 0.4-0.7 1.1C57.5 37.2 57.7 37.6 58.1 37.6z"/><path d="M60.2 35.6c0-0.2 0-0.4 0-0.6h0.5l0 0.5h0c0.2-0.4 0.4-0.5 0.8-0.5v0.5c-0.1 0-0.1 0-0.2 0 -0.4 0-0.6 0.3-0.6 1v1.5h-0.5L60.2 35.6 60.2 35.6z"/><path d="M64.3 38c0 0.8-0.6 1.1-1.2 1.1 -0.2 0-0.6-0.1-0.9-0.2l0-0.5c0.2 0.1 0.5 0.3 0.8 0.3 0.6 0 0.8-0.4 0.8-0.9v-0.5h0c-0.2 0.3-0.4 0.5-0.8 0.5 -0.6 0-1-0.5-1-1.5 0-1 0.4-1.5 1.1-1.5 0.3 0 0.6 0.2 0.7 0.5h0l0-0.4h0.5c0 0.2 0 0.4 0 0.5V38zM63.2 37.6c0.4 0 0.6-0.4 0.6-1.1 0-0.7-0.2-1.1-0.6-1.1s-0.6 0.4-0.6 1.1C62.6 37.2 62.8 37.6 63.2 37.6z"/><path d="M65.4 35.2C65.7 35 66 35 66.2 35c0.4 0 0.7 0.2 0.8 0.3 0.1 0.1 0.3 0.3 0.3 0.7v1.5c0 0.2 0 0.3 0 0.4h-0.4l0-0.4h0C66.7 37.7 66.4 38 66 38c-0.5 0-0.8-0.3-0.8-0.8 0-0.6 0.4-1 1.4-1h0.3V36c0-0.2 0-0.3-0.1-0.5 -0.1-0.1-0.3-0.2-0.5-0.2 -0.3 0-0.6 0.1-0.8 0.3L65.4 35.2zM66.8 36.5c-0.1 0-0.2 0-0.3 0 -0.6 0-0.8 0.3-0.8 0.6 0 0.3 0.2 0.5 0.5 0.5 0.4 0 0.7-0.3 0.7-0.7V36.5z"/><path d="M68.3 35.6c0-0.2 0-0.4 0-0.6h0.5l0 0.4h0c0.2-0.3 0.4-0.5 0.7-0.5 0.5 0 0.9 0.3 0.9 0.9v2h-0.5V36c0-0.5-0.2-0.7-0.5-0.7 -0.4 0-0.6 0.3-0.6 0.8v1.8h-0.5L68.3 35.6 68.3 35.6z"/><path d="M71.9 33.8v0.6h-0.5v-0.6H71.9zM71.4 35h0.5v2.9h-0.5V35z"/><path d="M72.8 37.4c0.2 0.1 0.4 0.2 0.7 0.2 0.4 0 0.6-0.2 0.6-0.4 0-0.2-0.1-0.3-0.4-0.5l-0.3-0.1c-0.4-0.2-0.6-0.4-0.6-0.8 0-0.5 0.4-0.8 0.9-0.8 0.2 0 0.5 0 0.6 0.1l0 0.4c-0.1-0.1-0.4-0.1-0.6-0.1 -0.3 0-0.5 0.2-0.5 0.4 0 0.2 0.2 0.4 0.5 0.5l0.2 0.1c0.4 0.1 0.6 0.4 0.6 0.7 0 0.5-0.3 0.9-0.9 0.9 -0.3 0-0.6-0.1-0.8-0.2L72.8 37.4z"/><path d="M75.4 35.6c0-0.2 0-0.4 0-0.6h0.5l0 0.4h0c0.2-0.3 0.4-0.5 0.7-0.5 0.3 0 0.5 0.2 0.7 0.5 0.2-0.3 0.4-0.5 0.7-0.5 0.5 0 0.8 0.3 0.8 0.9v2h-0.5v-2c0-0.4-0.2-0.5-0.4-0.5 -0.4 0-0.6 0.2-0.6 0.7v1.8h-0.5v-2c0-0.4-0.2-0.5-0.4-0.5 -0.4 0-0.6 0.2-0.6 0.7v1.8h-0.5L75.4 35.6 75.4 35.6z"/><path d="M80.2 36.6c0 0.7 0.3 1 0.8 1 0.2 0 0.5-0.1 0.7-0.2l0 0.4c-0.2 0.1-0.5 0.2-0.8 0.2 -0.8 0-1.2-0.6-1.2-1.5 0-0.9 0.4-1.5 1.1-1.5 0.7 0 1 0.5 1 1.4v0.3L80.2 36.6 80.2 36.6zM81.4 36.2c0-0.6-0.2-0.9-0.6-0.9 -0.3 0-0.6 0.2-0.6 0.9H81.4z"/><path d="M86.5 37.4c0 0.2 0 0.4 0 0.5h-0.5l0-0.4h0C86 37.7 85.7 38 85.3 38c-0.6 0-1-0.5-1-1.5 0-1 0.4-1.5 1-1.5 0.3 0 0.6 0.1 0.7 0.4h0v-1.8h0.5L86.5 37.4 86.5 37.4zM85.4 35.3c-0.4 0-0.6 0.4-0.6 1.1 0 0.7 0.2 1.1 0.6 1.1s0.6-0.4 0.6-1.1C86.1 35.7 85.9 35.3 85.4 35.3z"/><path d="M89.6 37.3c0 0.2 0 0.4 0 0.6h-0.5l0-0.4h0C89 37.8 88.7 38 88.4 38c-0.5 0-0.9-0.3-0.9-0.9v-2H88v1.9c0 0.5 0.2 0.7 0.5 0.7 0.4 0 0.6-0.3 0.6-0.8V35h0.5L89.6 37.3 89.6 37.3z"/><path d="M94.4 38c0 0.8-0.6 1.1-1.2 1.1 -0.2 0-0.6-0.1-0.9-0.2l0-0.5c0.2 0.1 0.5 0.3 0.8 0.3 0.6 0 0.8-0.4 0.8-0.9v-0.5h0c-0.2 0.3-0.4 0.5-0.8 0.5 -0.6 0-1-0.5-1-1.5 0-1 0.4-1.5 1.1-1.5 0.3 0 0.6 0.2 0.7 0.5h0l0-0.4h0.5c0 0.2 0 0.4 0 0.5V38zM93.3 37.6c0.4 0 0.6-0.4 0.6-1.1 0-0.7-0.2-1.1-0.6-1.1 -0.4 0-0.6 0.4-0.6 1.1C92.7 37.2 92.9 37.6 93.3 37.6z"/><path d="M96.4 35c0.8 0 1.2 0.6 1.2 1.5 0 0.9-0.4 1.5-1.2 1.5 -0.8 0-1.2-0.6-1.2-1.5S95.7 35 96.4 35zM96.4 37.6c0.5 0 0.7-0.4 0.7-1.1 0-0.7-0.2-1.1-0.7-1.1 -0.5 0-0.7 0.4-0.7 1.1C95.8 37.2 96 37.6 96.4 37.6z"/><path d="M100.6 37.3c0 0.2 0 0.4 0 0.6h-0.5l0-0.4h0c-0.2 0.3-0.4 0.5-0.7 0.5 -0.5 0-0.9-0.3-0.9-0.9v-2H99v1.9c0 0.5 0.2 0.7 0.5 0.7 0.4 0 0.6-0.3 0.6-0.8V35h0.5L100.6 37.3 100.6 37.3z"/><path d="M101.3 35h0.5l0.6 2.4h0l0.7-2.4h0.5l-0.9 2.9h-0.6L101.3 35z"/><path d="M104.7 36.6c0 0.7 0.3 1 0.8 1 0.2 0 0.5-0.1 0.7-0.2l0 0.4c-0.2 0.1-0.5 0.2-0.8 0.2 -0.8 0-1.2-0.6-1.2-1.5 0-0.9 0.4-1.5 1.1-1.5 0.7 0 1 0.5 1 1.4v0.3L104.7 36.6 104.7 36.6zM105.9 36.2c0-0.6-0.2-0.9-0.6-0.9 -0.3 0-0.6 0.2-0.6 0.9H105.9z"/><path d="M107.2 35.6c0-0.2 0-0.4 0-0.6h0.5l0 0.5h0c0.2-0.4 0.4-0.5 0.8-0.5v0.5c-0.1 0-0.1 0-0.2 0 -0.4 0-0.6 0.3-0.6 1v1.5h-0.5L107.2 35.6 107.2 35.6z"/><path d="M109.2 35.6c0-0.2 0-0.4 0-0.6h0.5l0 0.4h0c0.2-0.3 0.4-0.5 0.7-0.5 0.5 0 0.9 0.3 0.9 0.9v2h-0.5V36c0-0.5-0.2-0.7-0.5-0.7 -0.4 0-0.6 0.3-0.6 0.8v1.8h-0.5V35.6z"/><path d="M112.7 36.6c0 0.7 0.3 1 0.8 1 0.2 0 0.5-0.1 0.7-0.2l0 0.4c-0.2 0.1-0.5 0.2-0.8 0.2 -0.8 0-1.2-0.6-1.2-1.5 0-0.9 0.4-1.5 1.1-1.5 0.7 0 1 0.5 1 1.4v0.3L112.7 36.6 112.7 36.6zM113.9 36.2c0-0.6-0.2-0.9-0.6-0.9 -0.3 0-0.6 0.2-0.6 0.9H113.9z"/><path d="M115.2 35.6c0-0.2 0-0.4 0-0.6h0.5l0 0.4h0c0.2-0.3 0.4-0.5 0.7-0.5 0.3 0 0.5 0.2 0.7 0.5 0.2-0.3 0.4-0.5 0.7-0.5 0.5 0 0.8 0.3 0.8 0.9v2h-0.5v-2c0-0.4-0.2-0.5-0.4-0.5 -0.4 0-0.6 0.2-0.6 0.7v1.8h-0.5v-2c0-0.4-0.2-0.5-0.4-0.5 -0.4 0-0.6 0.2-0.6 0.7v1.8h-0.5V35.6z"/><path d="M120 36.6c0 0.7 0.3 1 0.8 1 0.2 0 0.5-0.1 0.7-0.2l0 0.4c-0.2 0.1-0.5 0.2-0.8 0.2 -0.8 0-1.2-0.6-1.2-1.5 0-0.9 0.4-1.5 1.1-1.5 0.7 0 1 0.5 1 1.4v0.3L120 36.6 120 36.6zM121.2 36.2c0-0.6-0.2-0.9-0.6-0.9 -0.3 0-0.6 0.2-0.6 0.9H121.2z"/><path d="M122.5 35.6c0-0.2 0-0.4 0-0.6h0.5l0 0.4h0c0.2-0.3 0.4-0.5 0.7-0.5 0.5 0 0.9 0.3 0.9 0.9v2h-0.5V36c0-0.5-0.2-0.7-0.5-0.7 -0.4 0-0.6 0.3-0.6 0.8v1.8h-0.5L122.5 35.6 122.5 35.6z"/><path d="M126.9 37.9c-0.1 0-0.3 0.1-0.4 0.1 -0.4 0-0.7-0.2-0.7-0.7v-1.9h-0.5V35h0.5v-0.6l0.5-0.1V35h0.6v0.4h-0.6v1.7c0 0.3 0.1 0.5 0.3 0.5 0.1 0 0.2 0 0.3-0.1L126.9 37.9 126.9 37.9z"/><path d="M131.4 37.4c0 0.2 0 0.4 0 0.5H131l0-0.4h0c-0.1 0.2-0.3 0.5-0.8 0.5 -0.6 0-1-0.5-1-1.5 0-1 0.4-1.5 1-1.5 0.3 0 0.6 0.1 0.7 0.4h0v-1.8h0.5L131.4 37.4 131.4 37.4zM130.3 35.3c-0.4 0-0.6 0.4-0.6 1.1 0 0.7 0.2 1.1 0.6 1.1s0.6-0.4 0.6-1.1C131 35.7 130.8 35.3 130.3 35.3z"/><path d="M132.8 36.6c0 0.7 0.3 1 0.8 1 0.2 0 0.5-0.1 0.7-0.2l0 0.4c-0.2 0.1-0.5 0.2-0.8 0.2 -0.8 0-1.2-0.6-1.2-1.5 0-0.9 0.4-1.5 1.1-1.5 0.7 0 1 0.5 1 1.4v0.3L132.8 36.6 132.8 36.6zM134 36.2c0-0.6-0.2-0.9-0.6-0.9 -0.3 0-0.6 0.2-0.6 0.9H134z"/><path d="M137 33.6h0.5v4.3H137V33.6z"/><path d="M138.8 33.6h0.5l-0.4 1.3h-0.4L138.8 33.6z"/><path d="M141.7 33.9c0.9 0 1.5 0.8 1.5 2 0 1.4-0.6 2.1-1.5 2.1 -0.9 0-1.5-0.8-1.5-2C140.2 34.6 140.8 33.9 141.7 33.9zM141.7 37.5c0.5 0 1-0.4 1-1.7 0-0.8-0.3-1.6-0.9-1.6 -0.5 0-1 0.4-1 1.7C140.8 36.8 141 37.5 141.7 37.5z"/><path d="M144.1 35.6c0-0.2 0-0.4 0-0.6h0.5l0 0.4h0c0.2-0.3 0.4-0.5 0.7-0.5 0.5 0 0.9 0.3 0.9 0.9v2h-0.5V36c0-0.5-0.2-0.7-0.5-0.7 -0.4 0-0.6 0.3-0.6 0.8v1.8h-0.5L144.1 35.6 144.1 35.6z"/><path d="M148.5 37.9c-0.1 0-0.3 0.1-0.4 0.1 -0.4 0-0.7-0.2-0.7-0.7v-1.9H147V35h0.5v-0.6l0.5-0.1V35h0.6v0.4h-0.6v1.7c0 0.3 0.1 0.5 0.3 0.5 0.1 0 0.2 0 0.3-0.1L148.5 37.9 148.5 37.9z"/><path d="M149.4 35.2c0.2-0.2 0.5-0.2 0.8-0.2 0.4 0 0.7 0.2 0.8 0.3 0.1 0.1 0.3 0.3 0.3 0.7v1.5c0 0.2 0 0.3 0 0.4h-0.4l0-0.4h0c-0.1 0.2-0.4 0.4-0.8 0.4 -0.5 0-0.8-0.3-0.8-0.8 0-0.6 0.4-1 1.4-1h0.3V36c0-0.2 0-0.3-0.1-0.5 -0.1-0.1-0.3-0.2-0.5-0.2 -0.3 0-0.6 0.1-0.8 0.3L149.4 35.2zM150.8 36.5c-0.1 0-0.2 0-0.3 0 -0.6 0-0.8 0.3-0.8 0.6 0 0.3 0.2 0.5 0.5 0.5 0.4 0 0.7-0.3 0.7-0.7V36.5z"/><path d="M152.2 35.6c0-0.2 0-0.4 0-0.6h0.5l0 0.5h0c0.2-0.4 0.4-0.5 0.8-0.5v0.5c-0.1 0-0.1 0-0.2 0 -0.4 0-0.6 0.3-0.6 1v1.5h-0.5L152.2 35.6 152.2 35.6z"/><path d="M154.8 33.8v0.6h-0.5v-0.6H154.8zM154.3 35h0.5v2.9h-0.5V35z"/><path d="M156.9 35c0.8 0 1.2 0.6 1.2 1.5 0 0.9-0.4 1.5-1.2 1.5 -0.8 0-1.2-0.6-1.2-1.5S156.1 35 156.9 35zM156.9 37.6c0.5 0 0.7-0.4 0.7-1.1 0-0.7-0.2-1.1-0.7-1.1 -0.5 0-0.7 0.4-0.7 1.1C156.2 37.2 156.4 37.6 156.9 37.6z"/></svg>