<svg version="1.1" id="TAC" class="funder-badge tac" xmlns="http://www.w3.org/2000/svg" x="0" y="0" width="90" height="37" viewBox="0 0 90 37" xml:space="preserve" enable-background="new 0 0 90 37" aria-labelledby="title desc" role="img"><title id="title">Toronto Arts Council</title><desc id="desc">Funded by the City of Toronto</desc><polygon points="1.7 6 0.1 6 0.1 5 4.3 5 4.3 6 2.8 6 2.8 10.1 1.7 10.1 "/><path d="M7.3 10.2c-0.4 0-0.8-0.1-1.1-0.2C5.9 9.8 5.6 9.6 5.4 9.4 5.1 9.2 4.9 8.9 4.8 8.6c-0.1-0.3-0.2-0.7-0.2-1v0c0-0.4 0.1-0.7 0.2-1C5 6.2 5.1 5.9 5.4 5.6c0.2-0.2 0.5-0.4 0.9-0.6 0.3-0.1 0.7-0.2 1.1-0.2 0.4 0 0.8 0.1 1.1 0.2 0.3 0.1 0.6 0.3 0.9 0.6 0.2 0.2 0.4 0.5 0.6 0.8 0.1 0.3 0.2 0.7 0.2 1v0c0 0.4-0.1 0.7-0.2 1C9.7 8.9 9.5 9.2 9.3 9.4 9 9.6 8.8 9.8 8.4 10 8.1 10.1 7.7 10.2 7.3 10.2M7.3 9.1c0.2 0 0.4 0 0.6-0.1 0.2-0.1 0.3-0.2 0.5-0.3 0.1-0.1 0.2-0.3 0.3-0.5C8.8 8 8.9 7.8 8.9 7.5v0c0-0.2 0-0.4-0.1-0.6C8.7 6.7 8.6 6.5 8.4 6.4 8.3 6.2 8.1 6.1 8 6 7.8 5.9 7.6 5.9 7.3 5.9c-0.2 0-0.4 0-0.6 0.1C6.5 6.1 6.4 6.2 6.2 6.4 6.1 6.5 6 6.7 5.9 6.9 5.8 7.1 5.8 7.3 5.8 7.5v0c0 0.2 0 0.4 0.1 0.6C6 8.3 6.1 8.5 6.2 8.7 6.4 8.8 6.5 8.9 6.7 9 6.9 9.1 7.1 9.1 7.3 9.1"/><path d="M11.1 5h2.3c0.6 0 1.1 0.2 1.5 0.5 0.3 0.3 0.4 0.7 0.4 1.2v0c0 0.4-0.1 0.8-0.3 1 -0.2 0.3-0.5 0.5-0.8 0.6l1.3 1.8h-1.3l-1.1-1.6h0 -0.9v1.6h-1.1V5zM13.3 7.4c0.3 0 0.5-0.1 0.6-0.2 0.1-0.1 0.2-0.3 0.2-0.5v0c0-0.2-0.1-0.4-0.2-0.6C13.8 6 13.6 6 13.3 6h-1.1v1.5H13.3z"/><path d="M18.9 10.2c-0.4 0-0.8-0.1-1.1-0.2 -0.3-0.1-0.6-0.3-0.9-0.6 -0.2-0.2-0.4-0.5-0.6-0.8 -0.1-0.3-0.2-0.7-0.2-1v0c0-0.4 0.1-0.7 0.2-1 0.1-0.3 0.3-0.6 0.6-0.8 0.2-0.2 0.5-0.4 0.9-0.6 0.3-0.1 0.7-0.2 1.1-0.2 0.4 0 0.8 0.1 1.1 0.2 0.3 0.1 0.6 0.3 0.9 0.6 0.2 0.2 0.4 0.5 0.6 0.8 0.1 0.3 0.2 0.7 0.2 1v0c0 0.4-0.1 0.7-0.2 1 -0.1 0.3-0.3 0.6-0.6 0.8 -0.2 0.2-0.5 0.4-0.9 0.6C19.6 10.1 19.2 10.2 18.9 10.2M18.9 9.1c0.2 0 0.4 0 0.6-0.1 0.2-0.1 0.3-0.2 0.5-0.3 0.1-0.1 0.2-0.3 0.3-0.5 0.1-0.2 0.1-0.4 0.1-0.6v0c0-0.2 0-0.4-0.1-0.6 -0.1-0.2-0.2-0.4-0.3-0.5 -0.1-0.1-0.3-0.3-0.5-0.3 -0.2-0.1-0.4-0.1-0.6-0.1 -0.2 0-0.4 0-0.6 0.1 -0.2 0.1-0.4 0.2-0.5 0.3 -0.1 0.1-0.2 0.3-0.3 0.5 -0.1 0.2-0.1 0.4-0.1 0.6v0c0 0.2 0 0.4 0.1 0.6 0.1 0.2 0.2 0.4 0.3 0.5 0.1 0.1 0.3 0.3 0.5 0.3C18.4 9.1 18.6 9.1 18.9 9.1"/><polygon points="22.6 5 23.6 5 26 8.1 26 5 27.1 5 27.1 10.1 26.2 10.1 23.7 6.8 23.7 10.1 22.6 10.1 "/><polygon points="29.6 6 28 6 28 5 32.3 5 32.3 6 30.7 6 30.7 10.1 29.6 10.1 "/><path d="M35.2 10.2c-0.4 0-0.8-0.1-1.1-0.2 -0.3-0.1-0.6-0.3-0.9-0.6 -0.2-0.2-0.4-0.5-0.6-0.8 -0.1-0.3-0.2-0.7-0.2-1v0c0-0.4 0.1-0.7 0.2-1 0.1-0.3 0.3-0.6 0.6-0.8 0.2-0.2 0.5-0.4 0.9-0.6 0.3-0.1 0.7-0.2 1.1-0.2 0.4 0 0.8 0.1 1.1 0.2 0.3 0.1 0.6 0.3 0.9 0.6 0.2 0.2 0.4 0.5 0.6 0.8 0.1 0.3 0.2 0.7 0.2 1v0c0 0.4-0.1 0.7-0.2 1 -0.1 0.3-0.3 0.6-0.6 0.8C37 9.6 36.7 9.8 36.3 10 36 10.1 35.6 10.2 35.2 10.2M35.3 9.1c0.2 0 0.4 0 0.6-0.1 0.2-0.1 0.3-0.2 0.5-0.3 0.1-0.1 0.2-0.3 0.3-0.5 0.1-0.2 0.1-0.4 0.1-0.6v0c0-0.2 0-0.4-0.1-0.6 -0.1-0.2-0.2-0.4-0.3-0.5 -0.1-0.1-0.3-0.3-0.5-0.3 -0.2-0.1-0.4-0.1-0.6-0.1 -0.2 0-0.4 0-0.6 0.1 -0.2 0.1-0.4 0.2-0.5 0.3 -0.1 0.1-0.2 0.3-0.3 0.5 -0.1 0.2-0.1 0.4-0.1 0.6v0c0 0.2 0 0.4 0.1 0.6 0.1 0.2 0.2 0.4 0.3 0.5 0.1 0.1 0.3 0.3 0.5 0.3C34.8 9.1 35 9.1 35.3 9.1"/><path d="M2.7 32.4c-0.4 0-0.7-0.1-1-0.2 -0.3-0.1-0.6-0.3-0.8-0.6 -0.2-0.2-0.4-0.5-0.6-0.8 -0.1-0.3-0.2-0.7-0.2-1v0c0-0.4 0.1-0.7 0.2-1 0.1-0.3 0.3-0.6 0.6-0.8 0.2-0.2 0.5-0.4 0.8-0.6 0.3-0.1 0.7-0.2 1.1-0.2 0.2 0 0.5 0 0.7 0.1 0.2 0 0.4 0.1 0.5 0.2 0.2 0.1 0.3 0.2 0.4 0.2 0.1 0.1 0.3 0.2 0.4 0.3l-0.7 0.8c-0.2-0.2-0.4-0.3-0.6-0.4 -0.2-0.1-0.4-0.2-0.7-0.2 -0.2 0-0.4 0-0.6 0.1 -0.2 0.1-0.3 0.2-0.5 0.3 -0.1 0.1-0.2 0.3-0.3 0.5 -0.1 0.2-0.1 0.4-0.1 0.6v0c0 0.2 0 0.4 0.1 0.6 0.1 0.2 0.2 0.4 0.3 0.5C1.8 31 2 31.1 2.2 31.2c0.2 0.1 0.4 0.1 0.6 0.1 0.3 0 0.5-0.1 0.7-0.2 0.2-0.1 0.4-0.3 0.6-0.4l0.7 0.7c-0.1 0.1-0.3 0.3-0.4 0.4C4.3 32 4.1 32.1 4 32.1c-0.2 0.1-0.4 0.1-0.6 0.2C3.2 32.4 3 32.4 2.7 32.4"/><path d="M8.5 32.4c-0.4 0-0.8-0.1-1.1-0.2 -0.3-0.1-0.6-0.3-0.9-0.6 -0.2-0.2-0.4-0.5-0.6-0.8 -0.1-0.3-0.2-0.7-0.2-1v0c0-0.4 0.1-0.7 0.2-1 0.1-0.3 0.3-0.6 0.6-0.8 0.2-0.2 0.5-0.4 0.9-0.6 0.3-0.1 0.7-0.2 1.1-0.2 0.4 0 0.8 0.1 1.1 0.2 0.3 0.1 0.6 0.3 0.9 0.6 0.2 0.2 0.4 0.5 0.6 0.8 0.1 0.3 0.2 0.7 0.2 1v0c0 0.4-0.1 0.7-0.2 1 -0.1 0.3-0.3 0.6-0.6 0.8 -0.2 0.2-0.5 0.4-0.9 0.6C9.3 32.3 8.9 32.4 8.5 32.4M8.5 31.3c0.2 0 0.4 0 0.6-0.1 0.2-0.1 0.3-0.2 0.5-0.3 0.1-0.1 0.2-0.3 0.3-0.5 0.1-0.2 0.1-0.4 0.1-0.6v0c0-0.2 0-0.4-0.1-0.6 -0.1-0.2-0.2-0.4-0.3-0.5 -0.1-0.1-0.3-0.3-0.5-0.3 -0.2-0.1-0.4-0.1-0.6-0.1 -0.2 0-0.4 0-0.6 0.1 -0.2 0.1-0.4 0.2-0.5 0.3 -0.1 0.1-0.2 0.3-0.3 0.5C7 29.3 7 29.5 7 29.7v0c0 0.2 0 0.4 0.1 0.6 0.1 0.2 0.2 0.4 0.3 0.5 0.1 0.1 0.3 0.3 0.5 0.3C8.1 31.3 8.3 31.3 8.5 31.3"/><path d="M14.8 32.4c-0.7 0-1.2-0.2-1.6-0.6 -0.4-0.4-0.6-1-0.6-1.7v-2.9h1.1v2.9c0 0.4 0.1 0.7 0.3 0.9 0.2 0.2 0.5 0.3 0.8 0.3 0.3 0 0.6-0.1 0.8-0.3 0.2-0.2 0.3-0.5 0.3-0.9v-2.9h1.1v2.9c0 0.4-0.1 0.7-0.2 1 -0.1 0.3-0.3 0.5-0.5 0.7 -0.2 0.2-0.4 0.3-0.7 0.4C15.5 32.3 15.2 32.4 14.8 32.4"/><polygon points="18.8 27.2 19.8 27.2 22.2 30.3 22.2 27.2 23.4 27.2 23.4 32.3 22.4 32.3 19.9 29 19.9 32.3 18.8 32.3 "/><path d="M27.6 32.4c-0.4 0-0.7-0.1-1-0.2 -0.3-0.1-0.6-0.3-0.8-0.6 -0.2-0.2-0.4-0.5-0.6-0.8 -0.1-0.3-0.2-0.7-0.2-1v0c0-0.4 0.1-0.7 0.2-1 0.1-0.3 0.3-0.6 0.6-0.8 0.2-0.2 0.5-0.4 0.8-0.6 0.3-0.1 0.7-0.2 1.1-0.2 0.2 0 0.5 0 0.7 0.1 0.2 0 0.4 0.1 0.5 0.2 0.2 0.1 0.3 0.2 0.4 0.2 0.1 0.1 0.3 0.2 0.4 0.3l-0.7 0.8c-0.2-0.2-0.4-0.3-0.6-0.4 -0.2-0.1-0.4-0.2-0.7-0.2 -0.2 0-0.4 0-0.6 0.1 -0.2 0.1-0.3 0.2-0.5 0.3 -0.1 0.1-0.2 0.3-0.3 0.5 -0.1 0.2-0.1 0.4-0.1 0.6v0c0 0.2 0 0.4 0.1 0.6 0.1 0.2 0.2 0.4 0.3 0.5 0.1 0.1 0.3 0.3 0.5 0.3 0.2 0.1 0.4 0.1 0.6 0.1 0.3 0 0.5-0.1 0.7-0.2 0.2-0.1 0.4-0.3 0.6-0.4l0.7 0.7c-0.1 0.1-0.3 0.3-0.4 0.4 -0.1 0.1-0.3 0.2-0.5 0.3 -0.2 0.1-0.4 0.1-0.6 0.2C28.1 32.4 27.8 32.4 27.6 32.4"/><rect x="31.1" y="27.2" width="1.1" height="5.1"/><polygon points="34.2 27.2 35.3 27.2 35.3 31.3 37.9 31.3 37.9 32.3 34.2 32.3 "/><rect x="0.1" y="34.9" width="37.9" height="2.2"/><path d="M11.8 13.2h4.9c1.3 0 2.4 0.4 3.1 1.1 0.6 0.6 0.9 1.4 0.9 2.4v0c0 0.9-0.2 1.6-0.6 2.1 -0.4 0.5-1 0.9-1.6 1.2l2.6 3.8h-2.7l-2.3-3.4h0 -1.8v3.4h-2.3V13.2zM16.5 18.4c0.6 0 1-0.1 1.3-0.4 0.3-0.3 0.5-0.6 0.5-1.1v0c0-0.5-0.2-0.9-0.5-1.1 -0.3-0.3-0.8-0.4-1.4-0.4h-2.3v3H16.5z"/><polygon points="24 15.3 20.8 15.3 20.8 13.2 29.6 13.2 29.6 15.3 26.3 15.3 26.3 23.8 24 23.8 "/><path d="M34 24c-0.8 0-1.6-0.1-2.4-0.4 -0.8-0.3-1.5-0.7-2.1-1.3l1.4-1.7c0.5 0.4 1 0.7 1.5 0.9 0.5 0.2 1.1 0.4 1.7 0.4 0.5 0 0.9-0.1 1.1-0.3 0.3-0.2 0.4-0.4 0.4-0.7v0c0-0.2 0-0.3-0.1-0.4 -0.1-0.1-0.2-0.2-0.3-0.3 -0.2-0.1-0.4-0.2-0.7-0.3 -0.3-0.1-0.6-0.2-1.1-0.3 -0.5-0.1-1-0.3-1.5-0.4 -0.4-0.2-0.8-0.4-1.1-0.6 -0.3-0.2-0.5-0.5-0.7-0.9 -0.2-0.4-0.3-0.8-0.3-1.3v0c0-0.5 0.1-0.9 0.3-1.3 0.2-0.4 0.4-0.7 0.8-1 0.3-0.3 0.7-0.5 1.2-0.7 0.5-0.2 1-0.2 1.5-0.2 0.8 0 1.5 0.1 2.1 0.3 0.7 0.2 1.3 0.6 1.8 1l-1.2 1.8c-0.5-0.3-0.9-0.6-1.4-0.8 -0.5-0.2-0.9-0.3-1.4-0.3s-0.8 0.1-1 0.3c-0.2 0.2-0.3 0.4-0.3 0.7v0c0 0.2 0 0.3 0.1 0.4 0.1 0.1 0.2 0.2 0.4 0.3 0.2 0.1 0.4 0.2 0.7 0.3 0.3 0.1 0.7 0.2 1.1 0.3 0.5 0.1 1 0.3 1.4 0.5 0.4 0.2 0.8 0.4 1.1 0.6 0.3 0.2 0.5 0.5 0.7 0.9 0.1 0.3 0.2 0.7 0.2 1.2v0c0 0.5-0.1 1-0.3 1.4 -0.2 0.4-0.5 0.8-0.8 1 -0.3 0.3-0.8 0.5-1.2 0.6C35.1 23.9 34.6 24 34 24"/><polygon points="5.7 23.8 0.1 23.8 2.9 18.3 5.7 12.9 8.6 18.3 11.4 23.8 "/><rect x="0.1" y="0.2" width="37.9" height="2.2"/><rect x="50.8" y="34.9" width="37.9" height="2.2"/><rect x="50.8" y="0.2" width="37.9" height="2.2"/><path d="M51.9 16.5h-1.3v-0.9h3.6v0.9h-1.3V20h-1V16.5z"/><path d="M54.9 15.6h1v1.7h1.8v-1.7h1V20h-1v-1.7h-1.8V20h-1V15.6z"/><path d="M59.6 15.6h3.3v0.9h-2.3v0.9h2v0.9h-2v0.9h2.4V20h-3.3V15.6z"/><path d="M64.7 17.8L64.7 17.8c0-1.2 0.9-2.3 2.3-2.3 0.8 0 1.3 0.3 1.7 0.7l-0.6 0.7c-0.3-0.3-0.7-0.5-1.1-0.5 -0.7 0-1.3 0.6-1.3 1.4v0c0 0.7 0.5 1.4 1.3 1.4 0.5 0 0.8-0.2 1.1-0.5l0.6 0.6c-0.4 0.5-0.9 0.8-1.8 0.8C65.7 20 64.7 19.1 64.7 17.8z"/><path d="M69.4 15.6h1V20h-1V15.6z"/><path d="M72.3 16.5H71v-0.9h3.6v0.9h-1.3V20h-1V16.5z"/><path d="M76.6 18.3l-1.7-2.6H76l1 1.7 1.1-1.7h1.1l-1.7 2.6V20h-1V18.3z"/><path d="M80.2 17.8L80.2 17.8c0-1.2 1-2.3 2.3-2.3 1.3 0 2.3 1 2.3 2.2v0c0 1.2-1 2.2-2.3 2.2C81.2 20 80.2 19 80.2 17.8zM83.8 17.8L83.8 17.8c0-0.8-0.5-1.4-1.3-1.4s-1.3 0.6-1.3 1.4v0c0 0.7 0.5 1.4 1.3 1.4C83.3 19.2 83.8 18.5 83.8 17.8z"/><path d="M85.6 15.6h3.3v0.9h-2.4v0.9h2.1v0.9h-2.1V20h-1L85.6 15.6 85.6 15.6z"/><path d="M52.2 27.9h-1.6v-1.1H55v1.1h-1.6v4.2h-1.2V27.9z"/><path d="M55.2 29.5L55.2 29.5c0-1.5 1.2-2.7 2.8-2.7s2.8 1.2 2.8 2.7v0c0 1.5-1.2 2.7-2.8 2.7S55.2 31 55.2 29.5zM59.6 29.5L59.6 29.5c0-0.9-0.7-1.7-1.6-1.7s-1.6 0.7-1.6 1.6v0c0 0.9 0.7 1.6 1.6 1.6C58.9 31.1 59.6 30.4 59.6 29.5z"/><path d="M61.6 26.8H64c0.7 0 1.2 0.2 1.5 0.5 0.3 0.3 0.4 0.7 0.4 1.2v0c0 0.8-0.5 1.4-1.1 1.6l1.3 1.9h-1.3l-1.1-1.7h-0.9v1.7h-1.2L61.6 26.8 61.6 26.8zM64 29.4c0.6 0 0.9-0.3 0.9-0.7v0c0-0.5-0.3-0.7-0.9-0.7h-1.1v1.5H64z"/><path d="M66.7 29.5L66.7 29.5c0-1.5 1.2-2.7 2.8-2.7s2.8 1.2 2.8 2.7v0c0 1.5-1.2 2.7-2.8 2.7C67.8 32.2 66.7 31 66.7 29.5zM71.1 29.5L71.1 29.5c0-0.9-0.7-1.7-1.6-1.7 -0.9 0-1.6 0.7-1.6 1.6v0c0 0.9 0.7 1.6 1.6 1.6C70.4 31.1 71.1 30.4 71.1 29.5z"/><path d="M73 26.8h1.1l2.5 3.2v-3.2h1.1v5.2h-1l-2.5-3.3v3.3H73V26.8z"/><path d="M80.1 27.9h-1.6v-1.1h4.3v1.1h-1.6v4.2h-1.2V27.9z"/><path d="M83 29.5L83 29.5c0-1.5 1.2-2.7 2.8-2.7s2.8 1.2 2.8 2.7v0c0 1.5-1.2 2.7-2.8 2.7C84.1 32.2 83 31 83 29.5zM87.3 29.5L87.3 29.5c0-0.9-0.7-1.7-1.6-1.7 -0.9 0-1.6 0.7-1.6 1.6v0c0 0.9 0.7 1.6 1.6 1.6C86.7 31.1 87.3 30.4 87.3 29.5z"/><rect x="43.7" y="0" width="1.2" height="37.2"/><path d="M50.8 4.8h3.4v0.9h-2.4v0.9h2.1v0.9h-2.1v1.7h-1L50.8 4.8 50.8 4.8z"/><path d="M54.8 7.3V4.8h1v2.5c0 0.7 0.4 1.1 1 1.1s1-0.4 1-1.1V4.8h1v2.5c0 1.3-0.7 2-1.9 2C55.6 9.2 54.8 8.6 54.8 7.3z"/><path d="M59.7 4.8h0.9l2.1 2.7V4.8h1v4.4h-0.8l-2.1-2.8v2.8h-1L59.7 4.8 59.7 4.8z"/><path d="M64.6 4.8h1.7c1.4 0 2.3 1 2.3 2.2v0c0 1.2-1 2.2-2.3 2.2h-1.7V4.8zM66.3 8.3c0.8 0 1.3-0.5 1.3-1.3v0c0-0.8-0.5-1.3-1.3-1.3h-0.7v2.7L66.3 8.3 66.3 8.3z"/><path d="M69.6 4.8h3.3v0.9h-2.4v0.9h2.1v0.9h-2.1v0.9h2.4v0.9h-3.4L69.6 4.8 69.6 4.8z"/><path d="M73.8 4.8h1.7c1.4 0 2.3 1 2.3 2.2v0c0 1.2-1 2.2-2.3 2.2h-1.7V4.8zM75.5 8.3c0.8 0 1.3-0.5 1.3-1.3v0c0-0.8-0.5-1.3-1.3-1.3h-0.7v2.7L75.5 8.3 75.5 8.3z"/><path d="M80.6 4.8h2c0.5 0 0.9 0.1 1.2 0.4 0.2 0.2 0.3 0.4 0.3 0.7v0c0 0.5-0.3 0.8-0.6 1C84 7.1 84.3 7.4 84.3 8v0c0 0.8-0.7 1.2-1.6 1.2h-2.1L80.6 4.8 80.6 4.8zM82.4 6.6c0.4 0 0.7-0.1 0.7-0.5v0c0-0.3-0.2-0.5-0.6-0.5h-1v0.9L82.4 6.6 82.4 6.6zM82.7 8.3c0.4 0 0.7-0.2 0.7-0.5v0c0-0.3-0.2-0.5-0.7-0.5h-1.1v1L82.7 8.3 82.7 8.3z"/><path d="M86.2 7.4l-1.7-2.7h1.1l1.1 1.8 1.1-1.8h1.1l-1.7 2.7v1.8h-1L86.2 7.4 86.2 7.4z"/></svg>